<svg class="svg-icon" style="width: 1em; height: 1em;vertical-align: middle;fill: currentColor;overflow: hidden;" viewBox="0 0 1024 1024" version="1.1" xmlns="http://www.w3.org/2000/svg"><path d="M512 517.810845m-316.368222 0a316.368222 316.368222 0 1 0 632.736444 0 316.368222 316.368222 0 1 0-632.736444 0Z" fill="#E9EAEB" /><path d="M737.977301 466.15889h-109.760403v-25.825977h96.847415l52.943253-77.477932h56.81715v25.825977h-43.904161zM628.216898 504.897856h206.607818v25.825978h-206.607818z" fill="#BCC0C4" /><path d="M873.563682 427.419924c-28.408575 0-51.651955-23.24338-51.651954-51.651954s23.24338-51.651955 51.651954-51.651955 51.651955 23.24338 51.651955 51.651955-23.24338 51.651955-51.651955 51.651954z m0-77.477932c-14.204288 0-25.825977 11.62169-25.825977 25.825978s11.62169 25.825977 25.825977 25.825977 25.825977-11.62169 25.825978-25.825977-11.62169-25.825977-25.825978-25.825978zM834.824716 672.766709h-56.81715l-51.651954-77.477932h-98.138714v-25.825978h112.343001l50.360656 77.477932h43.904161z" fill="#BCC0C4" /><path d="M873.563682 711.505675c-28.408575 0-51.651955-23.24338-51.651954-51.651955s23.24338-51.651955 51.651954-51.651955 51.651955 23.24338 51.651955 51.651955-23.24338 51.651955-51.651955 51.651955z m0-77.477932c-14.204288 0-25.825977 11.62169-25.825977 25.825977s11.62169 25.825977 25.825977 25.825977 25.825977-11.62169 25.825978-25.825977-11.62169-25.825977-25.825978-25.825977zM873.563682 569.462799c-28.408575 0-51.651955-23.24338-51.651954-51.651954s23.24338-51.651955 51.651954-51.651955 51.651955 23.24338 51.651955 51.651955-23.24338 51.651955-51.651955 51.651954z m0-77.477931c-14.204288 0-25.825977 11.62169-25.825977 25.825977s11.62169 25.825977 25.825977 25.825977 25.825977-11.62169 25.825978-25.825977-11.62169-25.825977-25.825978-25.825977zM499.087011 582.375788h25.825978v206.607819h-25.825978zM615.303909 582.375788h25.825978v206.607819h-25.825978zM382.870113 582.375788h25.825978v206.607819h-25.825978zM499.087011 220.812106h25.825978v180.781841h-25.825978z" fill="#BCC0C4" /><path d="M512 246.638083c-28.408575 0-51.651955-23.24338-51.651955-51.651954s23.24338-51.651955 51.651955-51.651955 51.651955 23.24338 51.651955 51.651955-23.24338 51.651955-51.651955 51.651954z m0-77.477932c-14.204288 0-25.825977 11.62169-25.825977 25.825978s11.62169 25.825977 25.825977 25.825977 25.825977-11.62169 25.825977-25.825977-11.62169-25.825977-25.825977-25.825978zM615.303909 220.812106h25.825978v180.781841h-25.825978z" fill="#BCC0C4" /><path d="M628.216898 246.638083c-28.408575 0-51.651955-23.24338-51.651955-51.651954s23.24338-51.651955 51.651955-51.651955 51.651955 23.24338 51.651954 51.651955-23.24338 51.651955-51.651954 51.651954z m0-77.477932c-14.204288 0-25.825977 11.62169-25.825977 25.825978s11.62169 25.825977 25.825977 25.825977 25.825977-11.62169 25.825977-25.825977-11.62169-25.825977-25.825977-25.825978zM382.870113 220.812106h25.825978v180.781841h-25.825978z" fill="#BCC0C4" /><path d="M395.783102 246.638083c-28.408575 0-51.651955-23.24338-51.651954-51.651954s23.24338-51.651955 51.651954-51.651955 51.651955 23.24338 51.651955 51.651955-23.24338 51.651955-51.651955 51.651954z m0-77.477932c-14.204288 0-25.825977 11.62169-25.825977 25.825978s11.62169 25.825977 25.825977 25.825977 25.825977-11.62169 25.825977-25.825977-11.62169-25.825977-25.825977-25.825978zM395.783102 466.15889h-109.760403l-52.943254-77.477932H189.175284v-25.825977h58.108449l51.651954 77.477932h96.847415zM189.175284 504.897856h206.607818v25.825978h-206.607818z" fill="#BCC0C4" /><path d="M150.436318 427.419924c-28.408575 0-51.651955-23.24338-51.651955-51.651954s23.24338-51.651955 51.651955-51.651955 51.651955 23.24338 51.651954 51.651955-23.24338 51.651955-51.651954 51.651954z m0-77.477932c-14.204288 0-25.825977 11.62169-25.825978 25.825978s11.62169 25.825977 25.825978 25.825977 25.825977-11.62169 25.825977-25.825977-11.62169-25.825977-25.825977-25.825978zM247.283733 672.766709H189.175284v-25.825978h43.904161l50.360656-77.477932h112.343001v25.825978h-98.138714z" fill="#BCC0C4" /><path d="M150.436318 711.505675c-28.408575 0-51.651955-23.24338-51.651955-51.651955s23.24338-51.651955 51.651955-51.651955 51.651955 23.24338 51.651954 51.651955-23.24338 51.651955-51.651954 51.651955z m0-77.477932c-14.204288 0-25.825977 11.62169-25.825978 25.825977s11.62169 25.825977 25.825978 25.825977 25.825977-11.62169 25.825977-25.825977-11.62169-25.825977-25.825977-25.825977zM150.436318 569.462799c-28.408575 0-51.651955-23.24338-51.651955-51.651954s23.24338-51.651955 51.651955-51.651955 51.651955 23.24338 51.651954 51.651955-23.24338 51.651955-51.651954 51.651954z m0-77.477931c-14.204288 0-25.825977 11.62169-25.825978 25.825977s11.62169 25.825977 25.825978 25.825977 25.825977-11.62169 25.825977-25.825977-11.62169-25.825977-25.825977-25.825977z" fill="#BCC0C4" /><path d="M679.868852 634.027743c0 21.952081-16.786885 38.738966-38.738965 38.738966h-258.259774c-21.952081 0-38.738966-16.786885-38.738965-38.738966v-232.433796c0-21.952081 16.786885-38.738966 38.738965-38.738966h258.259774c21.952081 0 38.738966 16.786885 38.738965 38.738966v232.433796z" fill="#A3D4FF" /><path d="M641.129887 685.679697h-258.259774c-28.408575 0-51.651955-23.24338-51.651954-51.651954v-232.433796c0-28.408575 23.24338-51.651955 51.651954-51.651955h258.259774c28.408575 0 51.651955 23.24338 51.651954 51.651955v232.433796c0 28.408575-23.24338 51.651955-51.651954 51.651954z m-258.259774-309.911727c-14.204288 0-25.825977 11.62169-25.825977 25.825977v232.433796c0 14.204288 11.62169 25.825977 25.825977 25.825977h258.259774c14.204288 0 25.825977-11.62169 25.825977-25.825977v-232.433796c0-14.204288-11.62169-25.825977-25.825977-25.825977h-258.259774z" fill="#2A5082" /><path d="M447.435057 453.245902h129.129886v129.129886h-129.129886z" fill="#FFFFFF" /><path d="M589.477932 595.288777h-154.955864v-154.955864h154.955864v154.955864z m-129.129887-25.825978h103.30391v-103.303909h-103.30391v103.303909zM382.870113 453.245902h25.825978v25.825977h-25.825978zM382.870113 504.897856h25.825978v25.825978h-25.825978zM382.870113 556.549811h25.825978v25.825977h-25.825978zM615.303909 453.245902h25.825978v25.825977h-25.825978zM615.303909 504.897856h25.825978v25.825978h-25.825978zM615.303909 556.549811h25.825978v25.825977h-25.825978z" fill="#2A5082" /><path d="M512 879.374527c-28.408575 0-51.651955-23.24338-51.651955-51.651954s23.24338-51.651955 51.651955-51.651955 51.651955 23.24338 51.651955 51.651955-23.24338 51.651955-51.651955 51.651954z m0-77.477932c-14.204288 0-25.825977 11.62169-25.825977 25.825978s11.62169 25.825977 25.825977 25.825977 25.825977-11.62169 25.825977-25.825977-11.62169-25.825977-25.825977-25.825978zM628.216898 879.374527c-28.408575 0-51.651955-23.24338-51.651955-51.651954s23.24338-51.651955 51.651955-51.651955 51.651955 23.24338 51.651954 51.651955-23.24338 51.651955-51.651954 51.651954z m0-77.477932c-14.204288 0-25.825977 11.62169-25.825977 25.825978s11.62169 25.825977 25.825977 25.825977 25.825977-11.62169 25.825977-25.825977-11.62169-25.825977-25.825977-25.825978zM395.783102 879.374527c-28.408575 0-51.651955-23.24338-51.651954-51.651954s23.24338-51.651955 51.651954-51.651955 51.651955 23.24338 51.651955 51.651955-23.24338 51.651955-51.651955 51.651954z m0-77.477932c-14.204288 0-25.825977 11.62169-25.825977 25.825978s11.62169 25.825977 25.825977 25.825977 25.825977-11.62169 25.825977-25.825977-11.62169-25.825977-25.825977-25.825978z" fill="#BCC0C4" /></svg>